name rise44.8762peak52.3436fall86.788.mot
datacolumns 19
datarows 24
range 12.73994500000000 12.77828600000000
endheader
time	ground_force1_vx	ground_force1_vy	ground_force1_vz	ground_force1_px	ground_force1_py	ground_force1_pz	ground_force2_vx	ground_force2_vy	ground_force2_vz	ground_force2_px	ground_force2_py	ground_force2_pz	ground_torque1_x	ground_torque1_y	ground_torque1_z	ground_torque2_x	ground_torque2_y	ground_torque2_z	
12.73994500000000	5.54055200000000	689.18682699999999	40.01582000000000	0.16763100000000	0.00000000000000	0.10551100000000	0.00000000000000	0.00000000000000	0.00000000000000	0.00000000000000	0.00000000000000	0.00000000000000	0.00000000000000	10.75477200000000	0.00000000000000	0.00000000000000	0.00000000000000	0.00000000000000	
12.74161800000000	5.11853800000000	690.07334300000002	40.04972800000000	0.16661200000000	0.00000000000000	0.10549800000000	0.00000000000000	0.00000000000000	0.00000000000000	0.00000000000000	0.00000000000000	0.00000000000000	0.00000000000000	10.79561500000000	0.00000000000000	0.00000000000000	0.00000000000000	0.00000000000000	
12.74328100000000	4.68241300000000	690.99627199999998	40.08950100000000	0.16558100000000	0.00000000000000	0.10548600000000	0.00000000000000	0.00000000000000	0.00000000000000	0.00000000000000	0.00000000000000	0.00000000000000	0.00000000000000	10.84259600000000	0.00000000000000	0.00000000000000	0.00000000000000	0.00000000000000	
12.74495300000000	4.23186000000000	691.95512199999996	40.13492600000000	0.16454000000000	0.00000000000000	0.10547600000000	0.00000000000000	0.00000000000000	0.00000000000000	0.00000000000000	0.00000000000000	0.00000000000000	0.00000000000000	10.89571100000000	0.00000000000000	0.00000000000000	0.00000000000000	0.00000000000000	
12.74661500000000	3.76660400000000	692.94950400000005	40.18579500000000	0.16349000000000	0.00000000000000	0.10546600000000	0.00000000000000	0.00000000000000	0.00000000000000	0.00000000000000	0.00000000000000	0.00000000000000	0.00000000000000	10.95494800000000	0.00000000000000	0.00000000000000	0.00000000000000	0.00000000000000	
12.74828000000000	3.28641400000000	693.97912399999996	40.24190300000000	0.16243100000000	0.00000000000000	0.10545600000000	0.00000000000000	0.00000000000000	0.00000000000000	0.00000000000000	0.00000000000000	0.00000000000000	0.00000000000000	11.02028400000000	0.00000000000000	0.00000000000000	0.00000000000000	0.00000000000000	
12.74995400000000	2.79110000000000	695.04378799999995	40.30305100000000	0.16136500000000	0.00000000000000	0.10544800000000	0.00000000000000	0.00000000000000	0.00000000000000	0.00000000000000	0.00000000000000	0.00000000000000	0.00000000000000	11.09168700000000	0.00000000000000	0.00000000000000	0.00000000000000	0.00000000000000	
12.75161200000000	2.28051600000000	696.14339299999995	40.36904400000000	0.16029200000000	0.00000000000000	0.10544000000000	0.00000000000000	0.00000000000000	0.00000000000000	0.00000000000000	0.00000000000000	0.00000000000000	0.00000000000000	11.16911100000000	0.00000000000000	0.00000000000000	0.00000000000000	0.00000000000000	
12.75328400000000	1.75455900000000	697.27792599999998	40.43969300000000	0.15921400000000	0.00000000000000	0.10543200000000	0.00000000000000	0.00000000000000	0.00000000000000	0.00000000000000	0.00000000000000	0.00000000000000	0.00000000000000	11.25250500000000	0.00000000000000	0.00000000000000	0.00000000000000	0.00000000000000	
12.75494800000000	1.21316600000000	698.44745899999998	40.51482000000000	0.15813100000000	0.00000000000000	0.10542400000000	0.00000000000000	0.00000000000000	0.00000000000000	0.00000000000000	0.00000000000000	0.00000000000000	0.00000000000000	11.34180400000000	0.00000000000000	0.00000000000000	0.00000000000000	0.00000000000000	
12.75661300000000	0.65631900000000	699.65214200000003	40.59425000000000	0.15704500000000	0.00000000000000	0.10541700000000	0.00000000000000	0.00000000000000	0.00000000000000	0.00000000000000	0.00000000000000	0.00000000000000	0.00000000000000	11.43693100000000	0.00000000000000	0.00000000000000	0.00000000000000	0.00000000000000	
12.75827900000000	0.08404200000000	700.89220000000000	40.67782200000000	0.15595600000000	0.00000000000000	0.10540900000000	0.00000000000000	0.00000000000000	0.00000000000000	0.00000000000000	0.00000000000000	0.00000000000000	0.00000000000000	11.53780200000000	0.00000000000000	0.00000000000000	0.00000000000000	0.00000000000000	
12.75995300000000	-0.50360200000000	702.16792199999998	40.76538100000000	0.15486500000000	0.00000000000000	0.10540200000000	0.00000000000000	0.00000000000000	0.00000000000000	0.00000000000000	0.00000000000000	0.00000000000000	0.00000000000000	11.64432100000000	0.00000000000000	0.00000000000000	0.00000000000000	0.00000000000000	
12.76161500000000	-1.10650500000000	703.47965799999997	40.85678400000000	0.15377400000000	0.00000000000000	0.10539500000000	0.00000000000000	0.00000000000000	0.00000000000000	0.00000000000000	0.00000000000000	0.00000000000000	0.00000000000000	11.75637900000000	0.00000000000000	0.00000000000000	0.00000000000000	0.00000000000000	
12.76328300000000	-1.72452000000000	704.82780800000000	40.95189900000000	0.15268300000000	0.00000000000000	0.10538700000000	0.00000000000000	0.00000000000000	0.00000000000000	0.00000000000000	0.00000000000000	0.00000000000000	0.00000000000000	11.87385800000000	0.00000000000000	0.00000000000000	0.00000000000000	0.00000000000000	
12.76494600000000	-2.35745900000000	706.21281399999998	41.05060400000000	0.15159300000000	0.00000000000000	0.10537900000000	0.00000000000000	0.00000000000000	0.00000000000000	0.00000000000000	0.00000000000000	0.00000000000000	0.00000000000000	11.99663000000000	0.00000000000000	0.00000000000000	0.00000000000000	0.00000000000000	
12.76661200000000	-3.00509400000000	707.63515400000006	41.15279100000000	0.15050400000000	0.00000000000000	0.10537100000000	0.00000000000000	0.00000000000000	0.00000000000000	0.00000000000000	0.00000000000000	0.00000000000000	0.00000000000000	12.12455400000000	0.00000000000000	0.00000000000000	0.00000000000000	0.00000000000000	
12.76828700000000	-3.66715800000000	709.09532700000000	41.25836500000000	0.14941800000000	0.00000000000000	0.10536200000000	0.00000000000000	0.00000000000000	0.00000000000000	0.00000000000000	0.00000000000000	0.00000000000000	0.00000000000000	12.25748000000000	0.00000000000000	0.00000000000000	0.00000000000000	0.00000000000000	
12.76994700000000	-4.34334400000000	710.59384899999998	41.36724300000000	0.14833600000000	0.00000000000000	0.10535300000000	0.00000000000000	0.00000000000000	0.00000000000000	0.00000000000000	0.00000000000000	0.00000000000000	0.00000000000000	12.39524700000000	0.00000000000000	0.00000000000000	0.00000000000000	0.00000000000000	
12.77161400000000	-5.03330800000000	712.13123900000005	41.47935500000000	0.14725800000000	0.00000000000000	0.10534400000000	0.00000000000000	0.00000000000000	0.00000000000000	0.00000000000000	0.00000000000000	0.00000000000000	0.00000000000000	12.53768400000000	0.00000000000000	0.00000000000000	0.00000000000000	0.00000000000000	
12.77328600000000	-5.73666600000000	713.70800999999994	41.59464600000000	0.14618400000000	0.00000000000000	0.10533300000000	0.00000000000000	0.00000000000000	0.00000000000000	0.00000000000000	0.00000000000000	0.00000000000000	0.00000000000000	12.68460800000000	0.00000000000000	0.00000000000000	0.00000000000000	0.00000000000000	
12.77495300000000	-6.45300000000000	715.32465999999999	41.71307500000000	0.14511500000000	0.00000000000000	0.10532300000000	0.00000000000000	0.00000000000000	0.00000000000000	0.00000000000000	0.00000000000000	0.00000000000000	0.00000000000000	12.83582900000000	0.00000000000000	0.00000000000000	0.00000000000000	0.00000000000000	
12.77661300000000	-7.18185400000000	716.98165900000004	41.83461400000000	0.14405200000000	0.00000000000000	0.10531100000000	0.00000000000000	0.00000000000000	0.00000000000000	0.00000000000000	0.00000000000000	0.00000000000000	0.00000000000000	12.99114300000000	0.00000000000000	0.00000000000000	0.00000000000000	0.00000000000000	
12.77828600000000	-7.92273600000000	718.67943800000000	41.95925200000000	0.14299500000000	0.00000000000000	0.10529900000000	0.00000000000000	0.00000000000000	0.00000000000000	0.00000000000000	0.00000000000000	0.00000000000000	0.00000000000000	13.15034100000000	0.00000000000000	0.00000000000000	0.00000000000000	0.00000000000000	
